# xmcd
#
# Track frame offsets: 
#        150
#        18703
#        38333
#        54572
#        72526
#        90045
#        104579
#        120217
#        138741
#        154123
#        172350
#
# Disc length: 2556 seconds
#
# Revision: 0
# Processed by: cddbd v1.5.2PL0 Copyright (c) Steve Scherf et al.
# Submitted via: ExactAudioCopy v1.2
#
DISCID=9109fa0b
DTITLE=Otis Taylor - Fantasizing About Being Black
DYEAR=2017
DGENRE=Blues
TTITLE0=Twelve String Mile
TTITLE1=Walk on Water
TTITLE2=Banjo Bam Bam
TTITLE3=Hand on Your Stomach
TTITLE4=Jump Jelly Belly
TTITLE5=Tripping on This
TTITLE6=D to E Blues
TTITLE7=Jump Out of Line
TTITLE8=Just Want to Live With You Baby
TTITLE9=Roll Down the Hill
TTITLE10=Jump to Mexico
EXTD=
EXTT0=
EXTT1=
EXTT2=
EXTT3=
EXTT4=
EXTT5=
EXTT6=
EXTT7=
EXTT8=
EXTT9=
EXTT10=
PLAYORDER=
